<?xml version="1.0" encoding="UTF-8"?>
<svg version="1.1" xmlns="http://www.w3.org/2000/svg" width="1094" height="442">
<path d="M0 0 C8.12626488 7.94157704 10.0715113 18.44410573 10.29248047 29.43383789 C10.67011577 83.73503066 -13.29308819 145.80163873 -51.4375 184.75 C-57.42556396 190.61261569 -63.65356568 195.37188569 -71.16137695 199.09594727 C-72.24017876 199.63204369 -72.24017876 199.63204369 -73.34077454 200.17897034 C-73.88831894 200.44991013 -74.43586334 200.72084991 -75 201 C-75.05170126 208.37505005 -75.08614121 215.75005168 -75.10986328 223.12524414 C-75.11977678 225.62200668 -75.13331154 228.11875809 -75.15087891 230.61547852 C-75.28503093 250.20561974 -74.55591502 269.56325815 -72 289 C-69.84393072 283.50762779 -68.0647254 277.98218341 -66.40087891 272.32250977 C-57.59178285 242.51311806 -45.25936048 202.26954259 -16.5 185.5 C-6.15141964 180.35477886 5.80947118 179.38670493 17 182.32421875 C21.00223091 183.67653505 23.88559399 185.23460434 26.18359375 188.875 C30.82517953 198.3962016 31.36706419 208.83057767 31.3125 219.25 C31.30404053 221.00364868 31.30404053 221.00364868 31.29541016 222.79272461 C30.9172846 251.06790577 26.12403369 279.08753344 22 307 C16.03842069 343.7625621 16.03842069 343.7625621 16.8125 380.8125 C16.96332031 382.03582031 17.11414063 383.25914062 17.26953125 384.51953125 C18.06545976 388.31189648 19.18173071 392.18173071 22 395 C24.3295947 395.50241322 24.3295947 395.50241322 27 395 C34.13476377 389.32877751 38.61579162 380.37301025 42.4375 372.25 C42.84726074 371.38294434 43.25702148 370.51588867 43.67919922 369.62255859 C53.82067779 347.71031472 62.59110951 325.06450305 70.25927734 302.18017578 C72.00154579 297.05214109 73.98523665 292.02565272 76 287 C76.31549805 286.19739746 76.63099609 285.39479492 76.95605469 284.56787109 C81.65797407 272.61948951 86.70162097 261.18667321 93 250 C93.51175781 249.01902344 94.02351562 248.03804687 94.55078125 247.02734375 C97.10211178 242.13786664 99.86686125 237.72187276 103.1875 233.3125 C106.46757088 228.95362254 108.25877905 225.13201964 110 220 C110.96476087 218.96596109 111.96499102 217.96372009 113 217 C113.556875 216.236875 114.11375 215.47375 114.6875 214.6875 C117.15402723 211.82099538 119.68973874 209.85628057 122.75 207.66796875 C125.04575559 206.01018292 125.04575559 206.01018292 127.25 204.05078125 C133.89859684 198.30980536 140.76558575 194.98254374 149 192 C149.90878906 191.64679688 150.81757812 191.29359375 151.75390625 190.9296875 C168.12443708 185.63964697 189.06519906 189.62757984 205 195 C206.83358964 195.51814472 208.66731615 196.03584797 210.50317383 196.54589844 C234.69424413 203.34865111 257.23232316 214.17591985 279.76635742 225.11401367 C293.84379375 231.9117721 308.19192672 238.06539025 322.65625 243.98828125 C324.81622844 244.92067194 326.86419834 245.95362349 328.9375 247.0625 C345.48880086 255.5084313 366.78846518 258.85388038 384.828125 254.16796875 C402.46192727 247.67473368 410.72990986 232.23087981 418.1875 216.1875 C418.61417969 215.21167969 419.04085938 214.23585937 419.48046875 213.23046875 C421 211 421 211 423.67578125 210.17578125 C424.44277344 210.11777344 425.20976563 210.05976563 426 210 C429.54438954 215.31658431 428.60233427 222.76026907 428 229 C427.21876486 232.43953188 425.85915218 235.01740292 424 238 C422.99839844 239.68609375 422.99839844 239.68609375 421.9765625 241.40625 C413.64846326 255.12781953 404.46374166 262.95095024 389.078125 267.94921875 C367.85667771 272.48289158 344.4994069 267.03335872 325.21484375 258.01953125 C322.63102115 256.83015259 320.0088999 255.76134763 317.375 254.6875 C309.44806708 251.40047851 301.71489779 247.71080764 293.96386719 244.03417969 C284.39166803 239.49473961 274.77555422 235.08327847 265.08203125 230.80859375 C261.80943115 229.36433715 258.5577647 227.87984126 255.3125 226.375 C240.90512146 219.84394437 226.0582277 214.80095056 211 210 C210.19127441 209.73767578 209.38254883 209.47535156 208.54931641 209.20507812 C199.32694246 206.24911201 190.16689325 204.39195937 180.5625 203.125 C179.57958984 202.99246826 178.59667969 202.85993652 177.58398438 202.72338867 C168.93355504 201.70487509 160.31284029 201.69846178 152.0625 204.8125 C150.74958984 205.28623047 150.74958984 205.28623047 149.41015625 205.76953125 C146.87059623 206.90908513 146.87059623 206.90908513 144.87109375 209.13671875 C143 211 143 211 140 211 C140 211.66 140 212.32 140 213 C138.20703125 214.5859375 138.20703125 214.5859375 135.8125 216.375 C134.9875 217.00148437 134.1625 217.62796875 133.3125 218.2734375 C131.64687871 219.51702637 129.98006628 220.75902044 128.3125 222 C125.74213976 224.22301426 123.71742497 226.64737554 121.625 229.31640625 C120 231 120 231 117.640625 232.20703125 C113.82474283 234.79799266 112.04589126 238.1878294 109.75 242.125 C109.27183838 242.92977783 108.79367676 243.73455566 108.30102539 244.5637207 C106.84782376 247.03177246 105.41876824 249.51201511 104 252 C103.59700684 252.70527832 103.19401367 253.41055664 102.77880859 254.13720703 C90.18492863 276.44436594 81.895082 300.33463275 73.81445312 324.55322266 C50.48979665 394.05177271 50.48979665 394.05177271 27.94091797 406.26147461 C24.41630671 407.60260028 21.07365511 407.28329142 17.375 406.9375 C16.19466187 406.84505005 16.19466187 406.84505005 14.99047852 406.75073242 C3.37532385 405.72659542 -7.59369341 404.11013848 -15.7421875 395.06640625 C-26.75009713 380.14274767 -26.79285753 357.79688574 -26 340 C-25.95891113 339.05737305 -25.91782227 338.11474609 -25.87548828 337.14355469 C-24.6484568 311.59150613 -21.06808524 286.34924132 -17.1875 261.0859375 C-17.03238449 260.07512619 -16.87726898 259.06431488 -16.717453 258.02287292 C-15.96048906 253.10389575 -15.19428526 248.18664394 -14.41137695 243.27172852 C-10.61384717 219.25703171 -10.61384717 219.25703171 -10 195 C-23.50956352 203.89048482 -30.67344668 214.96144493 -38 229 C-38.58523438 230.11503906 -39.17046875 231.23007813 -39.7734375 232.37890625 C-52.54596291 258.25376406 -61.4057198 288.27444591 -65.45849609 316.8515625 C-66.39133158 322.47123539 -68.64096996 326.27287182 -73 330 C-81.90202453 334.52904686 -91.96276477 334.493788 -101.58984375 332.86328125 C-104.74286823 331.73391592 -106.00215005 330.71259799 -108 328 C-109.00723443 325.15820136 -109.53923463 322.27709096 -110.0625 319.3125 C-110.30782471 317.99668945 -110.30782471 317.99668945 -110.55810547 316.65429688 C-114.21350203 296.26966589 -115.70834851 275.64555336 -117 255 C-118.62364923 258.73897801 -120.24633287 262.47837378 -121.86837769 266.2180481 C-122.45804892 267.57711487 -123.0479962 268.9360619 -123.63821411 270.29489136 C-126.80496565 277.58573943 -129.95983099 284.88036921 -133.04296875 292.20703125 C-167.59819724 374.1987482 -167.59819724 374.1987482 -189.10546875 384.2734375 C-196.48167031 387.10224882 -204.86874825 387.08764418 -212.3125 384.5 C-220.59564855 380.67700836 -224.71143476 373.87467125 -227.875 365.5703125 C-235.42109699 341.62193525 -235.29692411 316.66154101 -235.1373291 291.81719971 C-235.11648158 288.2160484 -235.10765423 284.61486674 -235.09765625 281.01367188 C-235.07651761 274.00904339 -235.04260836 267.00453369 -235 260 C-235.43699219 261.31266846 -235.43699219 261.31266846 -235.8828125 262.65185547 C-246.91566473 295.65066545 -246.91566473 295.65066545 -254 310 C-254.28794434 310.60279785 -254.57588867 311.2055957 -254.87255859 311.82666016 C-259.39874311 321.25256177 -265.17635282 330.0696465 -274 336 C-281.65265061 338.55088354 -290.07518808 337.92618883 -297.375 334.625 C-308.51760138 328.2747558 -313.6167368 317.60567424 -316.93359375 305.62890625 C-323.4950042 278.47282951 -319.93112413 250.66370595 -313 224 C-312.66521623 222.66703011 -312.3314288 221.33380802 -312 220 C-313.25308709 220.91244206 -314.50232026 221.83017771 -315.75 222.75 C-316.44609375 223.26046875 -317.1421875 223.7709375 -317.859375 224.296875 C-320.05484612 225.96075882 -320.05484612 225.96075882 -321.93359375 228.05078125 C-324.27228191 230.25684059 -326.34637287 231.22503785 -329.3125 232.4375 C-332.65681441 233.8821378 -335.61591954 235.27234463 -338.5 237.5 C-342.92347091 240.85973148 -347.90202598 242.86710278 -353 245 C-353.78503906 245.36222656 -354.57007813 245.72445312 -355.37890625 246.09765625 C-376.74325769 255.11663607 -399.45905097 251.84762746 -421.20751953 246.66308594 C-423.70588416 246.06983901 -426.20883049 245.50506937 -428.71484375 244.9453125 C-443.35559859 241.52563227 -457.11507013 235.67306041 -471 230 C-473.26702862 229.0771503 -475.53438051 228.15521118 -477.80371094 227.23803711 C-479.4475085 226.5719245 -481.08729298 225.89592935 -482.7265625 225.21875 C-485.4048237 224.22159309 -488.04121126 223.38007752 -490.78125 222.58203125 C-495.93694508 221.06712891 -500.88231483 219.16484846 -505.875 217.1875 C-521.61712472 211.11055618 -537.05346074 205.92984574 -554 205 C-554.69641602 204.96148926 -555.39283203 204.92297852 -556.11035156 204.88330078 C-568.31085982 204.31747195 -578.29212626 206.10947703 -589 212 C-589.69222656 212.28746094 -590.38445313 212.57492188 -591.09765625 212.87109375 C-593.46706529 214.27717016 -593.86105026 215.52998852 -595 218 C-596.15798359 219.27739197 -597.34949112 220.52473851 -598.5625 221.75 C-606.35937854 230.34074253 -611.55271053 241.34370743 -616.02734375 251.9609375 C-617 254 -617 254 -619 256 C-621 255.875 -621 255.875 -623 255 C-625.79323041 250.46721328 -625.65138792 246.16360633 -625 241 C-620.51067936 223.66400733 -609.80888255 208.46459046 -594.5546875 198.91796875 C-581.91910231 191.70413466 -567.07241802 192.17654625 -553 193 C-552.20706543 193.04447266 -551.41413086 193.08894531 -550.59716797 193.13476562 C-529.43973719 194.63343578 -508.71995988 203.73561933 -489 211 C-488.34829834 211.23952393 -487.69659668 211.47904785 -487.02514648 211.72583008 C-477.41105936 215.27393285 -467.863902 218.98744433 -458.33300781 222.75268555 C-445.06111373 228.00996195 -445.06111373 228.00996195 -431.375 232 C-430.38028687 232.24036987 -430.38028687 232.24036987 -429.36547852 232.4855957 C-427.96685426 232.82229246 -426.56750883 233.15600665 -425.16748047 233.48681641 C-422.92340276 234.01813555 -420.68235046 234.56109631 -418.44140625 235.10546875 C-416.94023754 235.46670053 -415.43893872 235.82739214 -413.9375 236.1875 C-413.24769043 236.35443359 -412.55788086 236.52136719 -411.84716797 236.69335938 C-396.73540655 240.26636645 -382.18644877 239.09732206 -367 237 C-365.700625 236.85433594 -364.40125 236.70867187 -363.0625 236.55859375 C-362.051875 236.37425781 -361.04125 236.18992187 -360 236 C-359.67 235.34 -359.34 234.68 -359 234 C-356.76559436 232.7862849 -354.54235489 231.65531291 -352.25 230.5625 C-348.05424606 228.53861454 -343.95437759 226.47148599 -340 224 C-338.93265625 223.33484375 -337.8653125 222.6696875 -336.765625 221.984375 C-335.59260387 221.24138975 -334.4207681 220.49653044 -333.25 219.75 C-332.63455322 219.358125 -332.01910645 218.96625 -331.38500977 218.5625 C-327.01001755 215.74088481 -322.92501416 212.70021013 -318.96484375 209.3125 C-316.64920756 207.76567344 -314.71972405 207.4893771 -312 207 C-309.9819245 205.69418644 -307.97946592 204.36363208 -306 203 C-305.34 203 -304.68 203 -304 203 C-303.59587891 201.92105469 -303.59587891 201.92105469 -303.18359375 200.8203125 C-297.44803891 187.15341285 -286.65587842 175.79876847 -273 170 C-262.93265344 166.69215756 -251.47551546 168.98347573 -242 173 C-235.68833034 176.28851257 -231.35353297 180.41854748 -227 186 C-226.79246094 185.13117188 -226.58492188 184.26234375 -226.37109375 183.3671875 C-224.61579826 176.80135417 -223.25682495 172.07408883 -217.68359375 167.953125 C-211.55260228 164.48221568 -202.0880642 164.99015081 -195.375 166.6484375 C-191.34457335 168.43464931 -188.57156947 170.84592284 -186.60517883 174.91346741 C-184.26618523 182.977838 -186.38544519 192.62872601 -187.42578125 200.78515625 C-187.72966476 203.26456586 -188.03353807 205.74397671 -188.33740234 208.22338867 C-188.49698425 209.50490814 -188.65656616 210.78642761 -188.82098389 212.10678101 C-189.64692697 218.75396646 -190.44931937 225.40394946 -191.24609375 232.0546875 C-191.40217102 233.3573204 -191.55824829 234.65995331 -191.71905518 236.00205994 C-192.93133778 246.21771004 -194.00381492 256.43724516 -194.875 266.6875 C-194.98239502 267.94506104 -195.08979004 269.20262207 -195.20043945 270.49829102 C-195.48594505 273.99770568 -195.74584593 277.49818376 -196 281 C-196.0928125 282.12962158 -196.185625 283.25924316 -196.28125 284.4230957 C-197.21188814 296.91608181 -197.22116555 309.42094967 -197.24023438 321.94360352 C-197.24995331 325.79400127 -197.28107521 329.64386705 -197.3125 333.49414062 C-197.36983593 347.2964324 -196.79969502 360.46497367 -194 374 C-192.88866699 373.38229736 -191.77733398 372.76459473 -190.63232422 372.12817383 C-190.0071994 371.78071609 -189.38207458 371.43325836 -188.73800659 371.07527161 C-180.20417721 365.79555376 -174.83848309 353.56023077 -170 345 C-169.65388672 344.39430176 -169.30777344 343.78860352 -168.95117188 343.16455078 C-155.18299983 318.86124519 -144.99886334 292.43325732 -134.29333496 266.69093323 C-121.67098143 236.34196286 -121.67098143 236.34196286 -118 229 C-117.89721816 227.59285686 -117.85415295 226.18110565 -117.84228516 224.77026367 C-117.83188705 223.88741699 -117.82148895 223.00457031 -117.81077576 222.0949707 C-117.80361038 221.12906006 -117.79644501 220.16314941 -117.7890625 219.16796875 C-117.76334172 217.08682356 -117.73686081 215.00568766 -117.7097168 212.92456055 C-117.69645355 211.82574554 -117.68319031 210.72693054 -117.66952515 209.59481812 C-117.03322176 160.90125451 -113.60467015 111.48309631 -98 65 C-97.76845215 64.3002002 -97.5369043 63.60040039 -97.29833984 62.87939453 C-88.84385405 37.70659504 -74.29628412 13.50191011 -50 1 C-35.78496277 -5.42460299 -13.06028142 -11.4432942 0 0 Z M-40 18 C-67.86870694 55.52717578 -71.35661004 110.8898654 -75 156 C-75.09788818 157.19608887 -75.19577637 158.39217773 -75.29663086 159.62451172 C-75.8449264 166.72390214 -76.13380267 173.75570275 -76.0625 180.875 C-76.05798828 181.76574219 -76.05347656 182.65648437 -76.04882812 183.57421875 C-76.03731222 185.71617671 -76.01939347 187.85809887 -76 190 C-40.90514296 171.5984931 -22.65424768 128.10419002 -11.14038086 92.41943359 C1.47348966 52.82643283 1.47348966 52.82643283 -3 13 C-5.19389888 9.71207687 -7.42517634 6.78741183 -11 5 C-23.41350041 3.56857557 -31.83749408 8.99218603 -40 18 Z M-254 181 C-278.38080208 207.55082111 -282.1586016 275.21521028 -282.3125 309.3125 C-282.31813965 310.50593018 -282.3237793 311.69936035 -282.32958984 312.92895508 C-282.28489516 318.16012685 -282.20453141 322.18338136 -280 327 C-274.11652671 325.44261001 -270.85667748 321.01313286 -267.77197266 316.00708008 C-254.57066578 291.46045189 -247.03339657 263.63028376 -238.86624146 237.13247681 C-238.08296101 234.59408035 -237.29561178 232.0569357 -236.50411987 229.52108765 C-235.38718666 225.93130089 -234.29033304 222.33598802 -233.19921875 218.73828125 C-232.86029602 217.65733185 -232.52137329 216.57638245 -232.17218018 215.462677 C-230.20551078 208.87497038 -229.06154514 204.00700737 -232.1640625 197.59375 C-236.97577707 190.69781682 -241.89166589 184.06314844 -250 181 C-251.32 181 -252.64 181 -254 181 Z " fill="#9F8342" transform="translate(645,22)"/>
</svg>
