<svg id="visual" viewBox="0 0 1000 100" width="1000" height="100" xmlns="http://www.w3.org/2000/svg" xmlns:xlink="http://www.w3.org/1999/xlink" version="1.1"><rect x="0" y="0" width="1000" height="100" fill="#ffffff"></rect><path d="M0 47L13.8 48.7C27.7 50.3 55.3 53.7 83.2 58.7C111 63.7 139 70.3 166.8 73.3C194.7 76.3 222.3 75.7 250 71.5C277.7 67.3 305.3 59.7 333.2 53.8C361 48 389 44 416.8 43.3C444.7 42.7 472.3 45.3 500 47.3C527.7 49.3 555.3 50.7 583.2 52.7C611 54.7 639 57.3 666.8 63.7C694.7 70 722.3 80 750 84.3C777.7 88.7 805.3 87.3 833.2 81.5C861 75.7 889 65.3 916.8 60.8C944.7 56.3 972.3 57.7 986.2 58.3L1000 59L1000 101L986.2 101C972.3 101 944.7 101 916.8 101C889 101 861 101 833.2 101C805.3 101 777.7 101 750 101C722.3 101 694.7 101 666.8 101C639 101 611 101 583.2 101C555.3 101 527.7 101 500 101C472.3 101 444.7 101 416.8 101C389 101 361 101 333.2 101C305.3 101 277.7 101 250 101C222.3 101 194.7 101 166.8 101C139 101 111 101 83.2 101C55.3 101 27.7 101 13.8 101L0 101Z" fill="#f3f4f6"></path></svg>